<?xml version="1.0" encoding="UTF-8"?>
<svg id="Layer_1" xmlns="http://www.w3.org/2000/svg" version="1.1" viewBox="0 0 612 792">
  <!-- Generator: Adobe Illustrator 29.1.0, SVG Export Plug-In . SVG Version: 2.1.0 Build 142)  -->
  <defs>
    <style>
      .st0 {
        fill: #711728;
      }
    </style>
  </defs>
  <g>
    <g>
      <path class="st0" d="M99.52,185.07v4.13l5.62,2.52c1.9-.89,20.54-9.71,23.56-14.46,1.31-2.07,2.06-5.32,2.42-7.36-5.21,8.41-18.83,14.51-26.07,17.79-1.87-.75-3.84-1.69-5.52-2.62Z"/>
      <path class="st0" d="M172.07,147.1c-.24-1.83-.5-3.65-.73-5.47-.91-7.39-1.15-14.86-1.02-22.3.11-6.28.04-10.25.68-16.49.37-3.67.44-15.13-3.4-14.97-2.95.12-10.05-.46-12.04-.34-32.68,1.89-65,.22-97.73-.42-5.75-.11-13.16.26-15.53,6.68-1.68,4.56-.4,11.58-.55,16.39-.37,12.31-.74,24.62-1.11,36.93-.15,4.85-.29,9.7-.44,14.55-.56,18.51-1.1,37.19,2.34,55.39.5,2.66,1.32,5.62,3.69,6.93,1.34.74,2.94.8,4.47.83,23.99.6,47.99,1.21,71.98,1.81,12.93.33,25.99.64,38.67-1.88,1.54-.3,3.13-.68,4.33-1.68,1.63-1.35,2.25-3.55,2.68-5.62,3.28-15.79,1.1-32.22,2.93-48.24.53-4.63,1.4-9.24,1.41-13.89,0-2.74-.28-5.47-.64-8.2ZM152.11,98.25c.98-1.91,3.5-3.34,6.05-3.12.85.07,1.67.32,2.45.59.59.21,1.17.44,1.63.8,1,.79,1.18,2.03,1.16,3.16-.05,2.63-2.11,6.36-5.94,6.93-1.95.29-3.75-1.01-4.7-2.41-1.23-1.81-1.63-4.06-.65-5.96ZM163.02,135.18c-2.08,15.29-26.8,14.91-23.96-1.8.18-1.09,1.38-4.22,2.06-4.99,4.29-4.85,14.85-2.64,10.59,4.05-3.34,5.24-9.11-6.07-1.4-1.57.04-4.75-5.29-4.04-7.75-1.38-3.84,4.18-.69,6.73-.97,11.45l.65-1.54c1.65-1.91,1.54,2.01,3.04,2.88l.67-2.68,6.72,3.36-1.67-4.03c1.3.22.79,2.05,2.48,2.57,6.54,2.04,9.13-8.04,5.24-11.97l.34,4.02c-8.37-.88,3.48-7.71-1.33-10.74l-2.01,4.7c-1.92-3.58,1.48-7.33-1.69-10.07-.74.31,1.57,5.79-.66,4.69-3.68-6.67-5.92-8.07-13.78-6.05.02-.87,2.6-1.76,3.18-1.85,13.98-2.31,22.11,7.45,20.27,20.95ZM156.25,157.18c.41.23-.37,1.89,2.78.46,0,2.82-1.35,5.12-4.22,3.23-3.11-2.06-.34-4.71,1.44-3.7ZM152.82,154.4c-4.22.12-7.31,3.42-10.31,5.89,2.46-5.86,9.45-7.25,15.2-6.61.48,2.7-3.38.67-4.89.72ZM146.05,106.29c-5.05-5.43-8.9-5.62-15.99-4.49,5.11-5.14,14.09-2.36,15.99,4.49ZM135.57,119.28c-7.38-2.07-3.32-14.76,1.47-10.97.12.09.87,2.56.53,2.98-1.42.72-3.35,1.81-3.33,3.65.02,1.85,2.92,2.86,1.33,4.34ZM133.24,130.48v32.59c0,1.76-.42,3.45-1.16,5.06h.08c-.03.26-.72,6.22-2.82,9.53-3.28,5.17-23.19,14.42-24.03,14.81l-.15.07-5.62-2.52v8.81l-1.94,1.04v4.58l-13.77,7.18v-73.63c0-7.72-5.23-12.8-8.04-15.52-.26-.26-.65-.64-.87-.85l.68-.38c.21.21.45.44.71.7,2.89,2.8,8.27,8.02,8.27,16.06v72.39l12.27-6.4v-3.73l-10.05,5.39v-68.36c0-8.52-4.5-13.02-9.74-17.79l12.45-7.49c3.18,2.81,6.09,5.43,8.15,9.83,5.71-4.03,11.33-6.46,17.23-9.18,7.21,3.28,18.35,8.52,18.35,17.79ZM118.07,103.29l3.98,3c.18-2.45-.44-7.47,2-9l-1.47,12.01c-1.43,2.69-5.4-4.9-4.51-6.02ZM98.04,95.77c2.14,3.41.39,3.65.13,6.46-.2,2.08-.17,4.68.2,6.72.09.52.04,1.62.75,1.48l-.48-3.76,1.48-.24c-.1-1.69-1.16-2.29-1.03-4.24.12-1.77,1.6-2.95,1.54-4.76,2.75.17.5,2.62.11,4.37-.11.5-.5,1.76.38,1.63.77-4.12,3.9-7.61,6.76-10.49l-.25,4c3.73-4.27,10.06-9.05,15.33-3.83.43.42,1.97,2.98,1.67,3.33l-1.52.28c-2.12-3.73-5.92-3.24-9.34-1.38-.96.52-1.76,1.79-2.49,2.01-1.58.46-3.89-.3-5.41,1.1l2.75,1.75c-3.96,3.11-5.01,10.91-7.76,14.23-1.03,1.24-2.77,1.67-3.66.19.04-2.95-.11-5.97-.09-8.9.02-2.34,1.07-4.75-.09-7.44-.31-.71-1.12-.7-1.27-.95-.91-1.52.41-3.23-3.26-4.5-6.85-2.36-7.88,10.18-2.63,9.63,1.61-.17,1.17-1.61,2.26-2.01-.54,4.53-6.18,2.88-6.47-1.31-.59-8.4,8.61-9.39,12.39-3.36ZM66.21,110.12c1.97-10.69,14.31-8.31,12.75,2.26-1.86-.91-.84-3.77-2.5-5.98-4.15-5.51-8.85,1.06-9.28,5.72-.56,6.08,6.2,13.07,8.13,18.43.34.93,1.74,4.88-.32,4.82-1.37-10.52-10.97-13.3-8.77-25.26ZM60.88,129.8c.85,1.16,4.09-.15,3.08,2.08-.87,1.9-4.38,2-6.01,1.03-5.44-5.74.3-16.77,7.02-10.52-4-.68-6.24,4.46-4.09,7.42ZM70.38,176.47c-3.21-5.28-10.78-5.21-15.41-2.08v-1.99c5.18-1.86,8.59-2.84,13.88-.4,9.14,4.2,6.3,19.03-4.75,16.25l-1.13-6.85c2.08-.02.24,3.35,1.91,4.57,3.92,2.85,9.01-3.71,5.49-9.5ZM55.17,147.1l-.68-1.29,4.83-9.68c1.6,3.79,2.22,7.44,2.06,10.97-.26,5.58-2.51,10.88-6.06,16.02-2.62-.61-2.4-11.53-1.98-11.99l4.99,1.99-3.16-6.02ZM52.2,95.44c2.39-1.01,6.24.47,7.75,2.38.49.62.93,1.28,1.16,2.03.67,2.23-.93,4.74-3.13,5.51s-4.73.02-6.54-1.45c-.55-.44-1.05-.96-1.35-1.6-.31-.65-.37-1.39-.37-2.12.02-1.89.74-4.02,2.48-4.75ZM60.96,214.38c-.28.81-.61,1.61-1.12,2.25-1.38,1.75-3.66,1.93-5.7,2-.72.02-1.49.03-2.12-.4-3.09-2.16-3.39-8.52-.16-10.67,2.7-1.79,8.13.11,9.36,3.46.39,1.06.1,2.29-.27,3.36ZM69.99,205.91c-1.34,3.63-.66,7.82-2.03,11.47-1.72.25-1.06-2.37-.97-3.47.38-4.9,1.12-11.11,5.98-13.52-.04,2.4-2.07,3.09-2.97,5.52ZM51.94,169.86c.44-1.17,1.63-4.27,3.02-4.47.68,3.55-4.51,7.5-2.68,10.78.16.29,1.6.17,1.58.64-.03.66-.98,1.86-.93,3.06.37,8.75,3.15,11.49,11.06,14.99l11.97,2.51c-17.96,4.91-30.44-10.44-24.02-27.51ZM76.96,162.38l-15.99,2c-.38-1.67.54-2.02,1.51-2.98,3.18-3.09,8.57-6.76,12.47-9.04.55-5.73-8.35,4.71-8.98,4.02,1.35-4.43,4.58-7.17,8.31-9.29,2.47-1.41,5.16-2.54,7.68-3.7-.07,1.12-.24,2.39-.51,3.7-1.19,5.86-4.39,12.73-10.49,12.3-.98,4.1,5.13-.79,6,2.98ZM126.51,219.36c-2.21.19-5.62,1.39-6.06-1.8-.41-3.03,2.69-3.93.63.21,3.92,4.44,5.53-1.52,6.17-4.86-1.58-.42-.81,2.23-2.88,1.28.03-.98.7-1.76.85-2.69.06-.34.14-2.09-.48-2.12l-1.2,4.2-1.26-.18c2.63-2.44.93-4.13-2.15-4.38-2.59-.2-5.19,1.92-7.03,3.49l3.57,1.26c.89,1.28-.29,2.33-.22,3.55.06,1.05,1.03.71.91,1.45l-2.44-1.3c-1.09,3.77,3.61,1.98,3.65,4.61-4.37.43-5.37-2.41-7.86-4.1-.44-.3-1.97-1.15-2.06-.25l1.39,1.13c-.02,1.65-.8,1.91-2.27,1.39l.76-2.05-1.97-1.25,6.11-.75c.81-.46-.44-.55-.79-.59-5.25-.62-9.59,3.93-15.26,3.17-1.67-.22-4.14-1.2-5.69-1.94-2.28-1.09-4.93-4.26-7.08-2.18l1.69.51-1.58,1.5,1.79.11,1.6-1.76c.15,2.83-2.84,3.55-4.93,2.27-1.94-3.55,2.27-4.89,5.13-4.42,2.6.43,3.43,2.91,5.78,3.6l-1.39-2.23,1.6-.78,2.67,1.72-.2-4.03,2.04,1.02-1.15,1.55c.63,2.45,1.82,3.23,4.29,2.85,4.75-.73,2.87-5.81,3.39-6.18l2.44,1.3v-2.66c3.84,1.99-.56,5.2-2.45,6.68.49.67,4.09-2.27,4.44-3.12.74-1.83-.1-2.46-.11-3.94-.02-2.02.94-2.49-.33-4.71-1.81-3.18-5.24-2.96-7.86-.88,1.1-4.98,7.56-2.92,9.66.73l1.26,4.22c.62-3.38-.8-6.65-.53-10.06.36-4.52,1.57-1.3,1.57-1.3,1.25-.08-.02-3.13,1.73-2.37l-.36,4.82.72-1.65c.56-.04.6.99.56,1.31-.27,2.07-2.24,4.15-2.31,6.39l2.96-4.64c.55-.71,3.64-.25,3.56.2-5.81-1.19-5.17,5.73-6.66,9.34-.7,1.7-2.43,2.32-3.13,3.88.81.34,1.09-.27,1.62-.65,3.4-2.46,5.38-6.59,10.47-6.14,6.62.58,8.2,7.26,4.66,12.2ZM129.29,196.33l3.63,15.55c-8.97-7.34-5.84-31.65.98-39.17,2.68-2.96,12.12-7.92,16.19-7.8,6.91.2,4.72,8.88,11.59,7.96.64.53-2.02,3.35-2.65,3.62-5.7,2.42-8.15-3.24-10.9-6.92-1.6,2.37-3.67,2.12-6.28,1.98-.23,3.24,4.95-.19,6.6.97l3.31,4.97c-2.88,1.48-4.98-1.24-7.62-1.36-5.73-.26-3.58,6.99,1.66,6.33-2.8,3.76-4.65,2.27-7.96.69-.86-.41-.62-1.79-1.95-.02,3.66.92,4.77,7.69,1.63,8.92-1.96.77.07-3.72-2.02-5.23-5.05-3.64-7.03,6.02-6.22,9.53ZM156.91,183.65c.15.09.09,1.13.49,1.14l2.97-1.34c.5,2.02-.7,5.1-3.01,5.32-4.19.4-3.64-6.94-.45-5.11ZM151.85,196.58c-1.23-2.89-.29-5.5,3.22-5.21v2.65s1.98-1.98,1.98-1.98c.59,3.93-1.48,5.27-5.2,4.54ZM144.49,219.81c-1.26.31-1.27-.46-1.86-1.11-4.74-5.21-8.57-11.6-7.24-18.91,1.07-5.89,6.27-3.12,6.44,1.9.06,1.9-1.81,3.44-1.3,5.55,3.04.09.75-6.1,4.55-2.21.79,2.54-1.71,4.91-2.56,7.18l3.3-.99-1.32,8.59ZM147.46,201.33c-2.62,0-3.31-6.38.34-5.32l-.66,1.97,2.64-.66c.34,1.57-.5,4.01-2.32,4ZM144.93,192.59c-3.65-1.25-.98-10.61,2.8-6.77l-.58,2.92,3.07-2.56c3.63-.12,1.46,8.72-5.28,6.42ZM151.11,200.64l3.31-.35c1.06.61.44,2.18-.18,2.81-2,2-3.73.02-3.12-2.45ZM161.33,217.59c-.48.38-1.01.73-1.59.91-.53.17-1.1.19-1.65.19-1.37,0-2.77-.16-4.02-.73-1.25-.57-2.34-1.59-2.77-2.89-.35-1.08-.24-2.24-.08-3.36.17-1.15.41-2.36,1.17-3.23,2.22-2.54,6.54-1.9,8.76.02,1.23,1.06,2.45,2.33,2.71,3.93.32,1.99-.95,3.91-2.53,5.17Z"/>
      <path class="st0" d="M114.95,178.96c.98-.54,1.85-1.17,2.62-1.87v-34.15c0-8.02-1.56-10.28-4.12-12.12-4.39-3.15-9.16-5.63-11.42-6.75-1.47,1.64-2.35,3.73-2.35,6.47v32.59c0,8.15,8.99,12.83,15.26,15.83Z"/>
      <path class="st0" d="M102.61,123.52c2.44,1.18,7.29,3.64,11.24,6.68,2.72,2.09,4.47,4.39,4.47,12.76v33.4c1.46-1.62,2.34-3.68,2.34-6.38v-32.59c0-7.96-8.9-12.83-15.36-15.83-1.02.56-1.91,1.22-2.69,1.96Z"/>
    </g>
    <g>
      <path class="st0" d="M194.29,178.98v5.25c0,6.56,6.26,9.19,11.61,11.61l14.24-8.18,1.41,2.63-25.55,14.74c-6.36-2.93-14.95-5.55-14.95-13.53v-24.64c0-10.6,14.95-15.75,25.45-20.5,7.07,3.23,14.44,4.54,14.44,15.65v1.62l-26.66,15.35ZM194.29,175.55l13.33-7.78c-.61-8.68-6.56-10.4-12.02-12.72-.71.71-1.31,1.82-1.31,4.54v15.96Z"/>
      <path class="st0" d="M242.85,198.47l-13.23,7.27v-38.88c0-6.56-3.43-9.39-7.78-13.33l13.03-7.78c2.22,2.12,4.95,4.24,6.46,6.97,3.74-2.02,9.39-4.34,13.63-6.36,6.26,2.83,14.44,5.45,14.44,13.23v25.85c0,7.17,3.43,8.18,7.78,12.22l-13.03,7.67c-4.34-4.04-7.88-5.05-7.88-12.62v-25.85c0-6.77-6.66-9.29-12.12-11.71-1.31,1.21-1.31,3.64-1.31,6.26v37.06Z"/>
      <path class="st0" d="M295.77,198.47l-13.23,7.27v-38.88c0-6.56-3.43-9.39-7.78-13.33l13.03-7.78c2.22,2.12,4.95,4.24,6.46,6.97,3.74-2.02,9.39-4.34,13.63-6.36,6.26,2.83,14.44,5.45,14.44,13.23v25.85c0,7.17,3.43,8.18,7.78,12.22l-13.03,7.67c-4.34-4.04-7.88-5.05-7.88-12.62v-25.85c0-6.77-6.66-9.29-12.12-11.71-1.31,1.21-1.31,3.64-1.31,6.26v37.06Z"/>
      <path class="st0" d="M374.33,184.23c0,7.37,3.74,9.69,7.67,13.43l-13.03,7.67c-2.22-2.12-4.95-4.14-6.36-6.97-3.84,2.02-9.49,4.44-13.73,6.36-6.16-2.83-14.44-5.35-14.44-13.23v-24.64c0-10.6,14.95-15.75,25.45-20.5,6.16,2.83,14.44,5.45,14.44,13.23v24.64ZM361.1,166.86c0-6.77-6.66-9.29-12.12-11.71-.71.61-1.31,1.72-1.31,4.44v24.64c0,6.77,6.56,9.39,12.02,11.81.81-.61,1.41-1.82,1.41-4.54v-24.64Z"/>
      <path class="st0" d="M414.11,152.62l13.23-7.27v38.88c0,6.67,3.33,9.39,7.67,13.33l-13.03,7.78c-2.22-2.12-4.95-4.14-6.36-6.97-3.84,2.02-9.39,4.44-13.73,6.36-6.16-2.83-14.44-5.35-14.44-13.23v-25.85c0-7.07-3.43-8.18-7.78-12.12l13.03-7.78c4.34,4.04,7.98,5.05,7.98,12.62v25.85c0,6.77,6.56,9.39,12.02,11.81.81-.71,1.41-1.82,1.41-4.54v-38.88Z"/>
      <path class="st0" d="M448.84,205.34c-4.34-4.04-7.88-5.05-7.88-12.62v-35.55h-8.28l5.55-3.74,2.73-1.82v-8.68l13.23-7.27v13.53h14.24l-11.82,7.98h-2.42v28.28c0,7.07,3.33,8.18,7.67,12.12l-13.03,7.78Z"/>
      <path class="st0" d="M464.9,134.25l10.7-10.7,10.7,10.7-10.7,10.81-10.7-10.81ZM476.71,205.34c-3.94-3.74-7.88-6.06-7.88-13.83v-38.88l13.23-7.27v38.88c0,6.67,3.33,9.39,7.67,13.43l-13.03,7.67Z"/>
      <path class="st0" d="M508.42,178.98v5.25c0,6.56,6.26,9.19,11.61,11.61l14.24-8.18,1.41,2.63-25.55,14.74c-6.36-2.93-14.95-5.55-14.95-13.53v-24.64c0-10.6,14.95-15.75,25.45-20.5,7.07,3.23,14.44,4.54,14.44,15.65v1.62l-26.66,15.35ZM508.42,175.55l13.33-7.78c-.61-8.68-6.56-10.4-12.02-12.72-.71.71-1.31,1.82-1.31,4.54v15.96Z"/>
      <path class="st0" d="M549.01,145.76c2.32,2.12,5.05,4.14,6.46,6.97,3.74-2.02,9.69-4.54,14.04-6.46,4.44,4.04,6.26,6.06,11.71,9.69l-12.93,7.78c-4.75-3.23-6.06-4.44-10.3-8.38-1.01,1.31-1.01,3.64-1.01,5.96v37.16l-13.23,7.27v-38.88c0-6.66-3.43-9.39-7.78-13.33l13.03-7.78Z"/>
    </g>
  </g>
  <g>
    <path class="st0" d="M96.09,376.01v4.13l5.62,2.52c1.9-.89,20.54-9.71,23.56-14.46,1.31-2.07,2.06-5.32,2.42-7.36-5.21,8.41-18.83,14.51-26.07,17.79-1.87-.75-3.84-1.69-5.52-2.62Z"/>
    <path class="st0" d="M168.63,338.04c-.24-1.83-.5-3.65-.73-5.47-.91-7.39-1.15-14.86-1.02-22.3.11-6.28.04-10.25.68-16.49.37-3.67.44-15.13-3.4-14.97-2.95.12-10.05-.46-12.04-.34-32.68,1.89-65,.22-97.73-.42-5.75-.11-13.16.26-15.53,6.68-1.68,4.56-.4,11.58-.55,16.39-.37,12.31-.74,24.62-1.11,36.93-.15,4.85-.29,9.7-.44,14.55-.56,18.51-1.1,37.19,2.34,55.39.5,2.66,1.32,5.62,3.69,6.93,1.34.74,2.94.8,4.47.83,23.99.6,47.99,1.21,71.98,1.81,12.93.33,25.99.64,38.67-1.88,1.54-.3,3.13-.68,4.33-1.68,1.63-1.35,2.25-3.55,2.68-5.62,3.28-15.79,1.1-32.22,2.93-48.24.53-4.63,1.4-9.24,1.41-13.89,0-2.74-.28-5.47-.64-8.2ZM148.67,289.19c.98-1.91,3.5-3.34,6.05-3.12.85.07,1.67.32,2.45.59.59.21,1.17.44,1.63.8,1,.79,1.18,2.03,1.16,3.16-.05,2.63-2.11,6.36-5.94,6.93-1.95.29-3.75-1.01-4.7-2.41-1.23-1.81-1.63-4.06-.65-5.96ZM159.59,326.13c-2.08,15.29-26.8,14.91-23.96-1.8.18-1.09,1.38-4.22,2.06-4.99,4.29-4.85,14.85-2.64,10.59,4.05-3.34,5.24-9.11-6.07-1.4-1.57.04-4.75-5.29-4.04-7.75-1.38-3.84,4.18-.69,6.73-.97,11.45l.65-1.54c1.65-1.91,1.54,2.01,3.04,2.88l.67-2.68,6.72,3.36-1.67-4.03c1.3.22.79,2.05,2.48,2.57,6.54,2.04,9.13-8.04,5.24-11.97l.34,4.02c-8.37-.88,3.48-7.71-1.33-10.74l-2.01,4.7c-1.92-3.58,1.48-7.33-1.69-10.07-.74.31,1.57,5.79-.66,4.69-3.68-6.67-5.92-8.07-13.78-6.05.02-.87,2.6-1.76,3.18-1.85,13.98-2.31,22.11,7.45,20.27,20.95ZM152.82,348.13c.41.23-.37,1.89,2.78.46,0,2.82-1.35,5.12-4.22,3.23-3.11-2.06-.34-4.71,1.44-3.7ZM149.39,345.34c-4.22.12-7.31,3.42-10.31,5.89,2.46-5.86,9.45-7.25,15.2-6.61.48,2.7-3.38.67-4.89.72ZM142.62,297.23c-5.05-5.43-8.9-5.62-15.99-4.49,5.11-5.14,14.09-2.36,15.99,4.49ZM132.14,310.23c-7.38-2.07-3.32-14.76,1.47-10.97.12.09.87,2.56.53,2.98-1.42.72-3.35,1.81-3.33,3.65.02,1.85,2.92,2.86,1.33,4.34ZM129.8,321.42v32.59c0,1.76-.42,3.45-1.16,5.06h.08c-.03.26-.72,6.22-2.82,9.53-3.28,5.17-23.19,14.42-24.03,14.81l-.15.07-5.62-2.52v8.81l-1.94,1.04v4.58l-13.77,7.18v-73.63c0-7.72-5.23-12.8-8.04-15.52-.26-.26-.65-.64-.87-.85l.68-.38c.21.21.45.44.71.7,2.89,2.8,8.27,8.02,8.27,16.06v72.39l12.27-6.4v-3.73l-10.05,5.39v-68.36c0-8.52-4.5-13.02-9.74-17.79l12.45-7.49c3.18,2.81,6.09,5.43,8.15,9.83,5.71-4.03,11.33-6.46,17.23-9.18,7.21,3.28,18.35,8.52,18.35,17.79ZM114.64,294.23l3.98,3c.18-2.45-.44-7.47,2-9l-1.47,12.01c-1.43,2.69-5.4-4.9-4.51-6.02ZM94.61,286.71c2.14,3.41.39,3.65.13,6.46-.2,2.08-.17,4.68.2,6.72.09.52.04,1.62.75,1.48l-.48-3.76,1.48-.24c-.1-1.69-1.16-2.29-1.03-4.24.12-1.77,1.6-2.95,1.54-4.76,2.75.17.5,2.62.11,4.37-.11.5-.5,1.76.38,1.63.77-4.12,3.9-7.61,6.76-10.49l-.25,4c3.73-4.27,10.06-9.05,15.33-3.83.43.42,1.97,2.98,1.67,3.33l-1.52.28c-2.12-3.73-5.92-3.24-9.34-1.38-.96.52-1.76,1.79-2.49,2.01-1.58.46-3.89-.3-5.41,1.1l2.75,1.75c-3.96,3.11-5.01,10.91-7.76,14.23-1.03,1.24-2.77,1.67-3.66.19.04-2.95-.11-5.97-.09-8.9.02-2.34,1.07-4.75-.09-7.44-.31-.71-1.12-.7-1.27-.95-.91-1.52.41-3.23-3.26-4.5-6.85-2.36-7.88,10.18-2.63,9.63,1.61-.17,1.17-1.61,2.26-2.01-.54,4.53-6.18,2.88-6.47-1.31-.59-8.4,8.61-9.39,12.39-3.36ZM62.77,301.06c1.97-10.69,14.31-8.31,12.75,2.26-1.86-.91-.84-3.77-2.5-5.98-4.15-5.51-8.85,1.06-9.28,5.72-.56,6.08,6.2,13.07,8.13,18.43.34.93,1.74,4.88-.32,4.82-1.37-10.52-10.97-13.3-8.77-25.26ZM57.44,320.74c.85,1.16,4.09-.15,3.08,2.08-.87,1.9-4.38,2-6.01,1.03-5.44-5.74.3-16.77,7.02-10.52-4-.68-6.24,4.46-4.09,7.42ZM66.95,367.41c-3.21-5.28-10.78-5.21-15.41-2.08v-1.99c5.18-1.86,8.59-2.84,13.88-.4,9.14,4.2,6.3,19.03-4.75,16.25l-1.13-6.85c2.08-.02.24,3.35,1.91,4.57,3.92,2.85,9.01-3.71,5.49-9.5ZM51.74,338.04l-.68-1.29,4.83-9.68c1.6,3.79,2.22,7.44,2.06,10.97-.26,5.58-2.51,10.88-6.06,16.02-2.62-.61-2.4-11.53-1.98-11.99l4.99,1.99-3.16-6.02ZM48.77,286.38c2.39-1.01,6.24.47,7.75,2.38.49.62.93,1.28,1.16,2.03.67,2.23-.93,4.74-3.13,5.51s-4.73.02-6.54-1.45c-.55-.44-1.05-.96-1.35-1.6-.31-.65-.37-1.39-.37-2.12.02-1.89.74-4.02,2.48-4.75ZM57.53,405.32c-.28.81-.61,1.61-1.12,2.25-1.38,1.75-3.66,1.93-5.7,2-.72.02-1.49.03-2.12-.4-3.09-2.16-3.39-8.52-.16-10.67,2.7-1.79,8.13.11,9.36,3.46.39,1.06.1,2.29-.27,3.36ZM66.56,396.85c-1.34,3.63-.66,7.82-2.03,11.47-1.72.25-1.06-2.37-.97-3.47.38-4.9,1.12-11.11,5.98-13.52-.04,2.4-2.07,3.09-2.97,5.52ZM48.51,360.81c.44-1.17,1.63-4.27,3.02-4.47.68,3.55-4.51,7.5-2.68,10.78.16.29,1.6.17,1.58.64-.03.66-.98,1.86-.93,3.06.37,8.75,3.15,11.49,11.06,14.99l11.97,2.51c-17.96,4.91-30.44-10.44-24.02-27.51ZM73.53,353.32l-15.99,2c-.38-1.67.54-2.02,1.51-2.98,3.18-3.09,8.57-6.76,12.47-9.04.55-5.73-8.35,4.71-8.98,4.02,1.35-4.43,4.58-7.17,8.31-9.29,2.47-1.41,5.16-2.54,7.68-3.7-.07,1.12-.24,2.39-.51,3.7-1.19,5.86-4.39,12.73-10.49,12.3-.98,4.1,5.13-.79,6,2.98ZM123.07,410.3c-2.21.19-5.62,1.39-6.06-1.8-.41-3.03,2.69-3.93.63.21,3.92,4.44,5.53-1.52,6.17-4.86-1.58-.42-.81,2.23-2.88,1.28.03-.98.7-1.76.85-2.69.06-.34.14-2.09-.48-2.12l-1.2,4.2-1.26-.18c2.63-2.44.93-4.13-2.15-4.38-2.59-.2-5.19,1.92-7.03,3.49l3.57,1.26c.89,1.28-.29,2.33-.22,3.55.06,1.05,1.03.71.91,1.45l-2.44-1.3c-1.09,3.77,3.61,1.98,3.65,4.61-4.37.43-5.37-2.41-7.86-4.1-.44-.3-1.97-1.15-2.06-.25l1.39,1.13c-.02,1.65-.8,1.91-2.27,1.39l.76-2.05-1.97-1.25,6.11-.75c.81-.46-.44-.55-.79-.59-5.25-.62-9.59,3.93-15.26,3.17-1.67-.22-4.14-1.2-5.69-1.94-2.28-1.09-4.93-4.26-7.08-2.18l1.69.51-1.58,1.5,1.79.11,1.6-1.76c.15,2.83-2.84,3.55-4.93,2.27-1.94-3.55,2.27-4.89,5.13-4.42,2.6.43,3.43,2.91,5.78,3.6l-1.39-2.23,1.6-.78,2.67,1.72-.2-4.03,2.04,1.02-1.15,1.55c.63,2.45,1.82,3.23,4.29,2.85,4.75-.73,2.87-5.81,3.39-6.18l2.44,1.3v-2.66c3.84,1.99-.56,5.2-2.45,6.68.49.67,4.09-2.27,4.44-3.12.74-1.83-.1-2.46-.11-3.94-.02-2.02.94-2.49-.33-4.71-1.81-3.18-5.24-2.96-7.86-.88,1.1-4.98,7.56-2.92,9.66.73l1.26,4.22c.62-3.38-.8-6.65-.53-10.06.36-4.52,1.57-1.3,1.57-1.3,1.25-.08-.02-3.13,1.73-2.37l-.36,4.82.72-1.65c.56-.04.6.99.56,1.31-.27,2.07-2.24,4.15-2.31,6.39l2.96-4.64c.55-.71,3.64-.25,3.56.2-5.81-1.19-5.17,5.73-6.66,9.34-.7,1.7-2.43,2.32-3.13,3.88.81.34,1.09-.27,1.62-.65,3.4-2.46,5.38-6.59,10.47-6.14,6.62.58,8.2,7.26,4.66,12.2ZM125.86,387.27l3.63,15.55c-8.97-7.34-5.84-31.65.98-39.17,2.68-2.96,12.12-7.92,16.19-7.8,6.91.2,4.72,8.88,11.59,7.96.64.53-2.02,3.35-2.65,3.62-5.7,2.42-8.15-3.24-10.9-6.92-1.6,2.37-3.67,2.12-6.28,1.98-.23,3.24,4.95-.19,6.6.97l3.31,4.97c-2.88,1.48-4.98-1.24-7.62-1.36-5.73-.26-3.58,6.99,1.66,6.33-2.8,3.76-4.65,2.27-7.96.69-.86-.41-.62-1.79-1.95-.02,3.66.92,4.77,7.69,1.63,8.92-1.96.77.07-3.72-2.02-5.23-5.05-3.64-7.03,6.02-6.22,9.53ZM153.47,374.59c.15.09.09,1.13.49,1.14l2.97-1.34c.5,2.02-.7,5.1-3.01,5.32-4.19.4-3.64-6.94-.45-5.11ZM148.42,387.52c-1.23-2.89-.29-5.5,3.22-5.21v2.65s1.98-1.98,1.98-1.98c.59,3.93-1.48,5.27-5.2,4.54ZM141.05,410.75c-1.26.31-1.27-.46-1.86-1.11-4.74-5.21-8.57-11.6-7.24-18.91,1.07-5.89,6.27-3.12,6.44,1.9.06,1.9-1.81,3.44-1.3,5.55,3.04.09.75-6.1,4.55-2.21.79,2.54-1.71,4.91-2.56,7.18l3.3-.99-1.32,8.59ZM144.02,392.27c-2.62,0-3.31-6.38.34-5.32l-.66,1.97,2.64-.66c.34,1.57-.5,4.01-2.32,4ZM141.5,383.53c-3.65-1.25-.98-10.61,2.8-6.77l-.58,2.92,3.07-2.56c3.63-.12,1.46,8.72-5.28,6.42ZM147.67,391.59l3.31-.35c1.06.61.44,2.18-.18,2.81-2,2-3.73.02-3.12-2.45ZM157.89,408.54c-.48.38-1.01.73-1.59.91-.53.17-1.1.19-1.65.19-1.37,0-2.77-.16-4.02-.73-1.25-.57-2.34-1.59-2.77-2.89-.35-1.08-.24-2.24-.08-3.36.17-1.15.41-2.36,1.17-3.23,2.22-2.54,6.54-1.9,8.76.02,1.23,1.06,2.45,2.33,2.71,3.93.32,1.99-.95,3.91-2.53,5.17Z"/>
    <path class="st0" d="M111.52,369.9c.98-.54,1.85-1.17,2.62-1.87v-34.15c0-8.02-1.56-10.28-4.12-12.12-4.39-3.15-9.16-5.63-11.42-6.75-1.47,1.64-2.35,3.73-2.35,6.47v32.59c0,8.15,8.99,12.83,15.26,15.83Z"/>
    <path class="st0" d="M99.18,314.46c2.44,1.18,7.29,3.64,11.24,6.68,2.72,2.09,4.47,4.39,4.47,12.76v33.4c1.46-1.62,2.34-3.68,2.34-6.38v-32.59c0-7.96-8.9-12.83-15.36-15.83-1.02.56-1.91,1.22-2.69,1.96Z"/>
  </g>
</svg>